PathFileType	4	(X/Y/Z)	/home/abdul/Desktop/myosuite/custom_workspace/IK/output/S14_12_2.trc
DataRate	CameraRate	NumFrames	NumMarkers	Units	OrigDataRate	OrigDataStartFrame	OrigNumFrames
200.0	200.0	50	3	mm	200.0	532	2124
Frame#	Time	V_Shoulder			V_Elbow			V_Wrist		
		X1	Y1	Z1	X2	Y2	Z2	X3	Y3	Z3

532	2.655	-127.00603163943936	634.1562239645004	323.55920535199795	-148.68236404118545	435.491670435337	35.581828121755066	-54.66648632527112	203.2635505108035	29.240085106127626
533	2.66	-127.00645730586007	634.0795196878131	323.5343972213188	-148.66454026503794	435.4794918449714	35.47412468098775	-54.633827477085745	203.24627858262727	29.23235589211724
534	2.665	-127.00955617337574	634.0053219429439	323.5084954307508	-148.64960996819275	435.47112574136554	35.36439661662419	-54.605004270380384	203.232489960871	29.223117829405698
535	2.67	-127.01534875566783	633.933631298916	323.4814966977485	-148.637560826525	435.46653953860994	35.25264395098479	-54.57994301809123	203.22217402804176	29.21241018119875
536	2.675	-127.023854156907	633.8644461549126	323.45339830287713	-148.6283762569842	435.4656954965193	35.138868388779905	-54.558563299562906	203.21531585080706	29.200277798421876
537	2.68	-127.03509006484217	633.7977627964914	323.42419811941477	-148.62203561191325	435.46855089224954	35.02307339086896	-54.54077844861019	203.2118963107915	29.186771023289726
538	2.685	-127.04907274478778	633.7335754555031	323.39389464295544	-148.6185143831263	435.47505820609183	34.905264244353376	-54.52649605772435	203.21189224736452	29.17194557465695
539	2.69	-127.065817034522	633.671876373493	323.3624870208509	-148.6177844144791	435.48516532059216	34.785448128619336	-54.51561849537515	203.21527661169821	29.155862415689377
540	2.695	-127.08533634010824	633.6126558683522	323.32997508132866	-148.61981412164914	435.4988157321016	34.66363417696014	-54.50804343334181	203.22201863133836	29.138587604454305
541	2.7	-127.10764263265283	633.5559024039854	323.2963593621179	-148.624568717839	435.51594877381547	34.539833533423575	-54.50366438101032	203.2320839844975	29.12019212808575
542	2.705	-127.13274644601154	633.5016026627472	323.26164113842077	-148.63201044412045	435.5364998493218	34.41405940454649	-54.502371223599425	203.24543498324925	29.100751721234612
543	2.71	-127.1606568754578	633.4497416204036	323.2258224500608	-148.64209880314735	435.560400675649	34.28632710565744	-54.50405076132432	203.26203076477782	29.08034666956432
544	2.715	-127.19138157732489	633.4003026233622	323.18890612764585	-148.6547907949871	435.58757953477107	34.15665410144837	-54.50858724657298	203.281827489816	29.05906159910054
545	2.72	-127.22492676963383	633.35326746792	323.1508958175832	-148.67004115384768	435.61796153250987	34.02506004053784	-54.515862916255365	203.30477854738862	29.03698525228745
546	2.725	-127.2612972337186	633.3086164812688	323.1117960057848	-148.68780258451287	435.6514688637571	33.891566783770685	-54.52575851658912	203.33083476496466	29.01421025164428
547	2.73	-127.3004963168591	633.2663286040034	323.0716120399083	-148.70802599734103	435.68802108292584	33.75619842602335	-54.53815381770508	203.35994462311498	28.990832851953137
548	2.735	-127.34252593593169	633.2263814738703	323.03035014998034	-148.73066074073145	435.7275353785397	33.618981311308815	-54.55292811559123	203.39205447376818	28.966952681943276
549	2.74	-127.3873865820858	633.1887515105064	322.98801746725445	-148.75565483001813	435.76992685086566	33.47994404100135	-54.569960719043024	203.4271087611574	28.942672476467138
550	2.745	-127.43507732645486	633.1534140009065	322.94462204116115	-148.78295517181004	435.8151087915029	33.33911747502788	-54.58913141944941	203.46505024455695	28.918097800190683
551	2.75	-127.48559582690775	633.1203431853728	322.90017285421527	-148.81250778286318	435.8629929638512	33.19653472590057	-54.61032094141602	203.50582022191583	28.89333676384352
552	2.755	-127.53893833584596	633.0895123436949	322.8546798347492	-148.84425800263864	435.91348988339894	33.05223114549357	-54.63341137240879	203.54935875350992	28.868499734094243
553	2.76	-127.59509970905016	633.060893881321	322.8081538673528	-148.87815069877416	435.96650909679147	32.90624430449541	-54.65828656978946	203.59560488475023	28.843699038132257
554	2.765	-127.65407341557875	633.0344594152817	322.7606068009041	-148.9141304647717	436.02195945866725	32.758613964497776	-54.684832543809165	203.64449686730802	28.81904866404995
555	2.77	-127.7158515487183	633.0101798596351	322.71205145408743	-148.9521418092827	436.0797494052801	32.60938204271103	-54.712937815324594	203.69597237774155	28.79466395812766
556	2.775	-127.78042483798542	632.9880255102124	322.66250161830186	-148.9921293364513	436.13978722395973	32.45859256932599	-54.74249374720187	203.74996873283987	28.770661320129218
557	2.78	-127.8477826621762	632.9679661284479	322.6119720578754	-149.03403791685668	436.2019813175033	32.306291637571206	-54.77339484857434	203.8064231009297	28.747157897717187
558	2.785	-127.91791306345938	632.9499710240883	322.5604785075059	-149.0778128486762	436.266240462633	32.15252734654448	-54.80553905132078	203.86527270842925	28.724271281094914
559	2.79	-127.99080276250554	632.934009136586	322.5080376668664	-149.1234000087718	436.3324740617006	31.997349736925955	-54.83882795832786	203.9264550409716	28.702119198976586
560	2.795	-128.0664371746437	632.9200491149884	322.4546671923179	-149.17074599348052	436.40059238687115	31.840810719709353	-54.8731670632945	203.98990803846183	28.680819216977213
561	2.8	-128.1448004270347	632.9080593961506	322.4003856856868	-149.2197982489687	436.47050681606817	31.682963998115714	-54.90846594202308	204.0555702834781	28.660488439501236
562	2.805	-128.2258753768477	632.8980082811065	322.34521268007416	-149.2705051910844	436.54213006001976	31.523864982881378	-54.94463841532425	204.12338118247374	28.641243216191768
563	2.81	-128.30964363042511	632.8898640094461	322.289168622679	-149.32281631471545	436.61537637980217	31.363570701138734	-54.98160268383476	204.19328113928813	28.623198853982313
564	2.815	-128.39608556341878	632.883594831559	322.2322748546228	-149.37668229273038	436.69016179433436	31.20213969913375	-55.01928143521187	204.26521172052483	28.606469335768622
565	2.82	-128.48518034187725	632.8791690786162	322.17455358778426	-149.43205506464582	436.76640427734037	31.039631939049027	-55.057601924321915	204.33911581241006	28.591167046691112
566	2.825	-128.57690594426325	632.8765552301766	322.11602787865564	-149.48888791522535	436.84402394335564	30.876108690224513	-55.096496027183456	204.41493776879946	28.577402508986957
567	2.83	-128.6712391843771	632.8757219793124	322.05672159925143	-149.54713554327355	436.9229432224183	30.711632415089927	-55.13590026955703	204.49262355005777	28.565284126336536
568	2.835	-128.7681557351602	632.8766382951674	321.9966594051086	-149.60675412094128	437.0030870231484	30.546266650143902	-55.17575583119277	204.57212085259238	28.554917938590943
569	2.84	-128.86763015335052	632.8792734828685	321.9358667004308	-149.667701343906	437.08438288398037	30.380075882333877	-55.21600852685345	204.65337922888114	28.54640738772583
570	2.845	-128.96963590496023	632.8835972407277	321.8743696004412	-149.72993647283545	437.1667611123785	30.21312542120852	-55.25660876532461	204.73635019789145	28.539853095822217
571	2.85	-129.0741453915425	632.8895797146831	321.8121948910197	-149.79342036657863	437.2501549119273	30.045481267230286	-55.29751148770335	204.82098734584633	28.535352655827182
572	2.855	-129.18112997721417	632.8971915499388	321.7493699857127	-149.85811550756213	437.33450049724934	29.87720997664993	-55.338676086325144	204.90724641735142	28.533000435796378
573	2.86	-129.29056001639765	632.9064039397779	321.6859228802145	-149.92398601989558	437.419737196763	29.70837852335721	-55.380066305741536	204.99508539695233	28.5328873972668
574	2.865	-129.40240488224384	632.9171886715335	321.62188210443094	-149.99099768071198	437.50580754335516	29.539054158132497	-55.421650127203414	205.08446458124988	28.535100928351596
575	2.87	-129.516632995697	632.9295181697139	321.55727667224534	-150.05911792528482	437.5926573530947	29.36930426573267	-55.46339963813227	205.175346641753	28.539724692089962
576	2.875	-129.63321185515932	632.9433655362894	321.4921360291199	-150.1283158464745	437.6802357921729	29.199196220251444	-55.50529088807847	205.26769667870417	28.546838490523843
577	2.88	-129.75210806671237	632.9587045881598	321.42648999767323	-150.19856218906173	437.7684954323058	29.02879723919896	-55.54730373266959	205.36148226616126	28.55651814490982
578	2.885	-129.8732873748502	632.9755098918298	321.36036872138374	-150.26982933952746	437.85739229488604	28.858174236748365	-55.58942166704496	205.4566734886697	28.56883539240942
579	2.89	-129.9967146936787	632.9937567953317	321.2938026065817	-150.34209131183297	437.9468858842164	28.68739367659817	-55.63163165025504	205.5532429699041	28.58385779953444
580	2.895	-130.12235413853276	633.0134214574397	321.2268222628963	-150.41532372974723	438.03693921020306	28.516521424898	-55.673923922076625	205.65116589370143	28.60164869255592
581	2.9	-130.25016905796292	633.0344808742337	321.15945844233397	-150.48950380625348	438.12751880092753	28.345622603682735	-55.71629181365843	205.75042001794915	28.62226710501645
